<mxfile host="app.diagrams.net" agent="Mozilla/5.0 (Windows NT 10.0; Win64; x64; rv:131.0) Gecko/20100101 Firefox/131.0" version="24.8.3">
  <diagram name="Page-1" id="c4acf3e9-155e-7222-9cf6-157b1a14988f">
    <mxGraphModel dx="778" dy="379" grid="1" gridSize="10" guides="1" tooltips="1" connect="1" arrows="1" fold="1" page="1" pageScale="1" pageWidth="850" pageHeight="1100" background="none" math="0" shadow="0">
      <root>
        <mxCell id="0" />
        <mxCell id="1" parent="0" />
        <mxCell id="17acba5748e5396b-1" value="frame" style="shape=umlFrame;whiteSpace=wrap;html=1;rounded=0;shadow=0;comic=0;labelBackgroundColor=none;strokeWidth=1;fontFamily=Verdana;fontSize=10;align=center;movable=0;resizable=0;rotatable=0;deletable=0;editable=0;locked=1;connectable=0;" parent="1" vertex="1">
          <mxGeometry x="20" y="20" width="820" height="1060" as="geometry" />
        </mxCell>
        <mxCell id="17acba5748e5396b-20" value="Commande" style="swimlane;html=1;fontStyle=0;childLayout=stackLayout;horizontal=1;startSize=26;fillColor=none;horizontalStack=0;resizeParent=1;resizeLast=0;collapsible=1;marginBottom=0;swimlaneFillColor=#ffffff;rounded=0;shadow=0;comic=0;labelBackgroundColor=none;strokeWidth=1;fontFamily=Verdana;fontSize=10;align=center;" parent="1" vertex="1">
          <mxGeometry x="410" y="50" width="160" height="98" as="geometry" />
        </mxCell>
        <mxCell id="17acba5748e5396b-21" value="# executer()" style="text;html=1;strokeColor=none;fillColor=none;align=left;verticalAlign=top;spacingLeft=4;spacingRight=4;whiteSpace=wrap;overflow=hidden;rotatable=0;points=[[0,0.5],[1,0.5]];portConstraint=eastwest;" parent="17acba5748e5396b-20" vertex="1">
          <mxGeometry y="26" width="160" height="26" as="geometry" />
        </mxCell>
        <mxCell id="GJo9A6eDQmk_NZIqTq33-12" value="# annuler()" style="text;html=1;strokeColor=none;fillColor=none;align=left;verticalAlign=top;spacingLeft=4;spacingRight=4;whiteSpace=wrap;overflow=hidden;rotatable=0;points=[[0,0.5],[1,0.5]];portConstraint=eastwest;" parent="17acba5748e5396b-20" vertex="1">
          <mxGeometry y="52" width="160" height="26" as="geometry" />
        </mxCell>
        <mxCell id="5d2195bd80daf111-10" value="&lt;p style=&quot;margin:0px;margin-top:4px;text-align:center;&quot;&gt;&lt;span style=&quot;caret-color: rgb(0, 0, 0); text-align: start; text-wrap: wrap; text-size-adjust: auto;&quot; id=&quot;docs-internal-guid-2ee5d506-7fff-8867-afa0-fd2d16b8a3a7&quot;&gt;&lt;span style=&quot;background-color: transparent; font-variant-east-asian: normal; font-variant-position: normal; vertical-align: baseline; white-space-collapse: preserve;&quot;&gt;&lt;font style=&quot;font-size: 12px;&quot;&gt;Vaisseau&lt;/font&gt;&lt;/span&gt;&lt;/span&gt;&lt;br&gt;&lt;/p&gt;&lt;hr size=&quot;1&quot;&gt;&lt;p style=&quot;margin:0px;margin-left:4px;&quot;&gt;&lt;font style=&quot;font-size: 12px;&quot;&gt;+&amp;nbsp;&lt;span style=&quot;caret-color: rgb(0, 0, 0); text-wrap: wrap; text-size-adjust: auto;&quot; id=&quot;docs-internal-guid-93e13cd5-7fff-e32a-2f38-325c44c238fd&quot;&gt;&lt;span style=&quot;background-color: transparent; font-variant-east-asian: normal; font-variant-position: normal; vertical-align: baseline; white-space-collapse: preserve;&quot;&gt;&lt;font style=&quot;font-size: 12px;&quot;&gt;type&lt;/font&gt;&lt;/span&gt;&lt;/span&gt;: enum&lt;br&gt;+&amp;nbsp;&lt;span style=&quot;caret-color: rgb(0, 0, 0); text-wrap: wrap; text-size-adjust: auto;&quot; id=&quot;docs-internal-guid-62168c0f-7fff-41d5-4c26-f476566d4a15&quot;&gt;&lt;span style=&quot;font-family: Arial, sans-serif; background-color: transparent; font-variant-east-asian: normal; font-variant-position: normal; vertical-align: baseline; white-space-collapse: preserve;&quot;&gt;propriÃ©taire&lt;/span&gt;&lt;/span&gt;: Joueur&lt;/font&gt;&lt;/p&gt;&lt;p style=&quot;margin:0px;margin-left:4px;&quot;&gt;&lt;font style=&quot;font-size: 12px;&quot;&gt;+&amp;nbsp;&lt;span style=&quot;caret-color: rgb(0, 0, 0); text-wrap: wrap; text-size-adjust: auto;&quot; id=&quot;docs-internal-guid-e295361c-7fff-5693-6578-479ee620bb02&quot;&gt;&lt;span style=&quot;font-family: Arial, sans-serif; background-color: transparent; font-variant-east-asian: normal; font-variant-position: normal; vertical-align: baseline; white-space-collapse: preserve;&quot;&gt;emplacement&lt;/span&gt;&lt;/span&gt;: Secteur&lt;br&gt;&lt;/font&gt;&lt;/p&gt;&lt;hr size=&quot;1&quot;&gt;&lt;p style=&quot;margin:0px;margin-left:4px;&quot;&gt;&lt;font style=&quot;font-size: 12px;&quot;&gt;-&amp;nbsp;&lt;span style=&quot;caret-color: rgb(0, 0, 0); text-wrap: wrap; text-size-adjust: auto;&quot; id=&quot;docs-internal-guid-6ab4af52-7fff-8bf8-78c1-0ad7d5bf00ba&quot;&gt;&lt;span style=&quot;font-family: Arial, sans-serif; background-color: transparent; font-variant-east-asian: normal; font-variant-position: normal; vertical-align: baseline; white-space-collapse: preserve;&quot;&gt;deplacerVers&lt;/span&gt;&lt;/span&gt;(destination)&lt;/font&gt;&lt;/p&gt;&lt;p style=&quot;margin:0px;margin-left:4px;&quot;&gt;&lt;font style=&quot;font-size: 12px;&quot;&gt;&lt;span style=&quot;background-color: initial;&quot;&gt;-&amp;nbsp;&lt;/span&gt;&lt;span style=&quot;caret-color: rgb(0, 0, 0); text-wrap: wrap; text-size-adjust: auto;&quot; id=&quot;docs-internal-guid-ca77cee1-7fff-af72-6b52-f041e94a133c&quot;&gt;&lt;span style=&quot;font-family: Arial, sans-serif; background-color: transparent; font-variant-east-asian: normal; font-variant-position: normal; vertical-align: baseline; white-space-collapse: preserve;&quot;&gt;engagerCombat&lt;/span&gt;&lt;/span&gt;&lt;span style=&quot;background-color: initial;&quot;&gt;(ennemi)&lt;/span&gt;&lt;/font&gt;&lt;br&gt;&lt;/p&gt;" style="verticalAlign=top;align=left;overflow=fill;fontSize=12;fontFamily=Helvetica;html=1;rounded=0;shadow=0;comic=0;labelBackgroundColor=none;strokeWidth=1" parent="1" vertex="1">
          <mxGeometry x="350" y="540" width="190" height="148" as="geometry" />
        </mxCell>
        <mxCell id="5d2195bd80daf111-13" value="&lt;b&gt;CommandeExtermination&lt;/b&gt;" style="html=1;rounded=0;shadow=0;comic=0;labelBackgroundColor=none;strokeWidth=1;fontFamily=Verdana;fontSize=10;align=center;" parent="1" vertex="1">
          <mxGeometry x="450" y="200" width="110" height="50" as="geometry" />
        </mxCell>
        <mxCell id="5d2195bd80daf111-14" value="&lt;b&gt;CommandeExpansion&lt;/b&gt;" style="html=1;rounded=0;shadow=0;comic=0;labelBackgroundColor=none;strokeWidth=1;fontFamily=Verdana;fontSize=10;align=center;" parent="1" vertex="1">
          <mxGeometry x="605" y="120" width="110" height="50" as="geometry" />
        </mxCell>
        <mxCell id="5d2195bd80daf111-26" style="edgeStyle=orthogonalEdgeStyle;rounded=0;html=1;dashed=1;labelBackgroundColor=none;startFill=0;endArrow=open;endFill=0;endSize=10;fontFamily=Verdana;fontSize=10;exitX=0.5;exitY=0;exitDx=0;exitDy=0;" parent="1" edge="1" source="5d2195bd80daf111-13">
          <mxGeometry relative="1" as="geometry">
            <Array as="points">
              <mxPoint x="505" y="150" />
            </Array>
            <mxPoint x="440" y="200" as="sourcePoint" />
            <mxPoint x="505" y="150" as="targetPoint" />
          </mxGeometry>
        </mxCell>
        <mxCell id="5d2195bd80daf111-15" value="&lt;p style=&quot;margin:0px;margin-top:4px;text-align:center;&quot;&gt;&lt;span style=&quot;caret-color: rgb(0, 0, 0); text-align: start; text-wrap: wrap; text-size-adjust: auto;&quot; id=&quot;docs-internal-guid-b3213f9f-7fff-8f5c-c253-338bc10951cc&quot;&gt;&lt;span style=&quot;font-family: Arial, sans-serif; background-color: transparent; font-variant-east-asian: normal; font-variant-position: normal; vertical-align: baseline; white-space-collapse: preserve;&quot;&gt;Plateau&lt;/span&gt;&lt;/span&gt;&lt;br&gt;&lt;/p&gt;&lt;hr size=&quot;1&quot;&gt;&lt;p style=&quot;margin:0px;margin-left:4px;&quot;&gt;+&amp;nbsp;&lt;span style=&quot;caret-color: rgb(0, 0, 0); text-wrap: wrap; text-size-adjust: auto;&quot; id=&quot;docs-internal-guid-b2e2c27a-7fff-f34c-b8bb-4817a529b96e&quot;&gt;&lt;span style=&quot;font-family: Arial, sans-serif; background-color: transparent; font-variant-east-asian: normal; font-variant-position: normal; vertical-align: baseline; white-space-collapse: preserve;&quot;&gt;&lt;font style=&quot;font-size: 12px;&quot;&gt;secteurs[][]&lt;/font&gt;&lt;/span&gt;&lt;/span&gt;: Secteur[][]&lt;br&gt;&lt;/p&gt;&lt;hr size=&quot;1&quot;&gt;&lt;p style=&quot;margin:0px;margin-left:4px;&quot;&gt;-&amp;nbsp;&lt;span style=&quot;caret-color: rgb(0, 0, 0); text-wrap: wrap; text-size-adjust: auto;&quot; id=&quot;docs-internal-guid-2244ef7e-7fff-301d-b6cc-7731503437bb&quot;&gt;&lt;span style=&quot;font-family: Arial, sans-serif; background-color: transparent; font-variant-east-asian: normal; font-variant-position: normal; vertical-align: baseline; white-space-collapse: preserve;&quot;&gt;&lt;font style=&quot;font-size: 12px;&quot;&gt;disposerSecteurs&lt;/font&gt;&lt;/span&gt;&lt;/span&gt;()&lt;/p&gt;&lt;p style=&quot;margin:0px;margin-left:4px;&quot;&gt;-&amp;nbsp;&lt;span style=&quot;caret-color: rgb(0, 0, 0); text-wrap: wrap; text-size-adjust: auto;&quot; id=&quot;docs-internal-guid-e2a53ce2-7fff-88a2-711e-00a28b6adaa2&quot;&gt;&lt;span style=&quot;font-family: Arial, sans-serif; background-color: transparent; font-variant-east-asian: normal; font-variant-position: normal; vertical-align: baseline; white-space-collapse: preserve;&quot;&gt;&lt;font style=&quot;font-size: 12px;&quot;&gt;placerTriPrime&lt;/font&gt;&lt;/span&gt;&lt;/span&gt;()&lt;/p&gt;&lt;p style=&quot;margin:0px;margin-left:4px;&quot;&gt;- initialiserPlateau()&lt;br&gt;&lt;/p&gt;" style="verticalAlign=top;align=left;overflow=fill;fontSize=12;fontFamily=Helvetica;html=1;rounded=0;shadow=0;comic=0;labelBackgroundColor=none;strokeWidth=1" parent="1" vertex="1">
          <mxGeometry x="550" y="340" width="190" height="110" as="geometry" />
        </mxCell>
        <mxCell id="5d2195bd80daf111-17" value="&lt;b&gt;CommandeExploration&lt;/b&gt;" style="html=1;rounded=0;shadow=0;comic=0;labelBackgroundColor=none;strokeWidth=1;fontFamily=Verdana;fontSize=10;align=center;" parent="1" vertex="1">
          <mxGeometry x="700" y="40" width="110" height="50" as="geometry" />
        </mxCell>
        <mxCell id="5d2195bd80daf111-18" value="&lt;p style=&quot;margin:0px;margin-top:4px;text-align:center;&quot;&gt;&lt;i&gt;Jeu&lt;/i&gt;&lt;br&gt;&lt;/p&gt;&lt;hr size=&quot;1&quot;&gt;&lt;p style=&quot;margin:0px;margin-left:4px;&quot;&gt;+ tours: Int&lt;br&gt;+ joueurActuel: Joueur&lt;/p&gt;&lt;p style=&quot;margin: 0px 0px 0px 4px;&quot;&gt;+ ordreTour: Joueur[]&lt;/p&gt;&lt;p style=&quot;margin: 0px 0px 0px 4px;&quot;&gt;+ plateau: Plateau&lt;/p&gt;&lt;p style=&quot;margin: 0px 0px 0px 4px;&quot;&gt;+ commandes: Commande[]&lt;/p&gt;&lt;hr size=&quot;1&quot;&gt;&lt;p style=&quot;margin:0px;margin-left:4px;&quot;&gt;- demarrerJeu()&lt;br&gt;- finirTour()&lt;/p&gt;&lt;p style=&quot;margin:0px;margin-left:4px;&quot;&gt;- calculerScore()&lt;br&gt;&lt;/p&gt;&lt;p style=&quot;margin:0px;margin-left:4px;&quot;&gt;- executerCommande()&lt;br&gt;&lt;/p&gt;" style="verticalAlign=top;align=left;overflow=fill;fontSize=12;fontFamily=Helvetica;html=1;rounded=0;shadow=0;comic=0;labelBackgroundColor=none;strokeWidth=1" parent="1" vertex="1">
          <mxGeometry x="60" y="50" width="190" height="200" as="geometry" />
        </mxCell>
        <mxCell id="5d2195bd80daf111-19" value="&lt;p style=&quot;margin:0px;margin-top:4px;text-align:center;&quot;&gt;&lt;i&gt;Joueur&lt;/i&gt;&lt;br&gt;&lt;/p&gt;&lt;hr size=&quot;1&quot;&gt;&lt;p style=&quot;margin:0px;margin-left:4px;&quot;&gt;+ nom: String&lt;br&gt;+ couleur: String&lt;/p&gt;&lt;p style=&quot;margin:0px;margin-left:4px;&quot;&gt;+&amp;nbsp;&lt;span style=&quot;caret-color: rgb(0, 0, 0); text-wrap: wrap; text-size-adjust: auto;&quot; id=&quot;docs-internal-guid-6de89723-7fff-ddd4-8437-8b7554050fe8&quot;&gt;&lt;span style=&quot;background-color: transparent; font-variant-east-asian: normal; font-variant-position: normal; vertical-align: baseline; white-space-collapse: preserve;&quot;&gt;&lt;font style=&quot;font-size: 12px;&quot; face=&quot;Helvetica&quot;&gt;vaisseauxPossÃ©dÃ©s&lt;/font&gt;&lt;/span&gt;&lt;/span&gt;:&amp;nbsp;&lt;span style=&quot;background-color: transparent; font-family: Arial, sans-serif; white-space: pre-wrap; caret-color: rgb(0, 0, 0);&quot;&gt;&lt;font style=&quot;font-size: 12px;&quot;&gt;Vaisseau[]&lt;/font&gt;&lt;/span&gt;&lt;br&gt;&lt;/p&gt;&lt;div&gt;&amp;nbsp;&lt;span style=&quot;background-color: initial;&quot;&gt;+ &lt;font face=&quot;Helvetica&quot;&gt;commandesChoisies&lt;/font&gt;&lt;/span&gt;&lt;span style=&quot;background-color: initial;&quot;&gt;: Commande[]&lt;/span&gt;&lt;/div&gt;&lt;div&gt;&lt;p style=&quot;margin: 0px 0px 0px 4px;&quot;&gt;+&amp;nbsp;&lt;span style=&quot;caret-color: rgb(0, 0, 0); text-wrap: wrap; text-size-adjust: auto;&quot; id=&quot;docs-internal-guid-5e5d3d90-7fff-a844-01cc-83fdc1810987&quot;&gt;&lt;span style=&quot;font-family: Arial, sans-serif; background-color: transparent; font-variant-east-asian: normal; font-variant-position: normal; vertical-align: baseline; white-space-collapse: preserve;&quot;&gt;&lt;font style=&quot;font-size: 12px;&quot;&gt;secteursContrÃ´lÃ©s&lt;/font&gt;&lt;/span&gt;&lt;/span&gt;: Secteur[]&lt;br&gt;&lt;/p&gt;&lt;p style=&quot;margin: 0px 0px 0px 4px;&quot;&gt;&lt;br&gt;&lt;/p&gt;&lt;/div&gt;&lt;div&gt;&lt;/div&gt;&lt;p style=&quot;margin:0px;margin-left:4px;&quot;&gt;-&amp;nbsp;&lt;span style=&quot;caret-color: rgb(0, 0, 0); text-wrap: wrap; text-size-adjust: auto;&quot; id=&quot;docs-internal-guid-1cc7331e-7fff-ebf7-1ea9-ec3f53f1e658&quot;&gt;&lt;span style=&quot;font-family: Arial, sans-serif; background-color: transparent; font-variant-east-asian: normal; font-variant-position: normal; vertical-align: baseline; white-space-collapse: preserve;&quot;&gt;&lt;font style=&quot;font-size: 12px;&quot;&gt;sÃ©lectionnerCommande&lt;/font&gt;&lt;/span&gt;&lt;/span&gt;(): Commande&lt;br&gt;-&amp;nbsp;&lt;span style=&quot;caret-color: rgb(0, 0, 0); text-wrap: wrap; text-size-adjust: auto;&quot; id=&quot;docs-internal-guid-b605cee1-7fff-6ceb-278c-d278d0f0dbaa&quot;&gt;&lt;span style=&quot;font-family: Arial, sans-serif; background-color: transparent; font-variant-east-asian: normal; font-variant-position: normal; vertical-align: baseline; white-space-collapse: preserve;&quot;&gt;&lt;font style=&quot;font-size: 12px;&quot;&gt;effectuerAction&lt;/font&gt;&lt;/span&gt;&lt;/span&gt;()&lt;/p&gt;&lt;p style=&quot;margin:0px;margin-left:4px;&quot;&gt;-&amp;nbsp;&lt;span style=&quot;caret-color: rgb(0, 0, 0); text-wrap: wrap; text-size-adjust: auto;&quot; id=&quot;docs-internal-guid-a8f24988-7fff-b718-d9a4-53bfb2a87d07&quot;&gt;&lt;span style=&quot;background-color: transparent; font-variant-east-asian: normal; font-variant-position: normal; vertical-align: baseline; white-space-collapse: preserve;&quot;&gt;&lt;font face=&quot;Helvetica&quot; style=&quot;font-size: 12px;&quot;&gt;placerVaisseaux&lt;/font&gt;&lt;/span&gt;&lt;/span&gt;()&lt;br&gt;&lt;/p&gt;" style="verticalAlign=top;align=left;overflow=fill;fontSize=12;fontFamily=Helvetica;html=1;rounded=0;shadow=0;comic=0;labelBackgroundColor=none;strokeWidth=1" parent="1" vertex="1">
          <mxGeometry x="30" y="290" width="240" height="170" as="geometry" />
        </mxCell>
        <mxCell id="5d2195bd80daf111-20" value="&lt;p style=&quot;margin:0px;margin-top:4px;text-align:center;&quot;&gt;&lt;span style=&quot;caret-color: rgb(0, 0, 0); text-align: start; text-wrap: wrap; text-size-adjust: auto;&quot; id=&quot;docs-internal-guid-e3b61ee9-7fff-e5d5-41c7-d22d9880ad86&quot;&gt;&lt;span style=&quot;font-family: Arial, sans-serif; background-color: transparent; font-variant-east-asian: normal; font-variant-position: normal; vertical-align: baseline; white-space-collapse: preserve;&quot;&gt;&lt;font style=&quot;font-size: 12px;&quot;&gt;Secteur&lt;/font&gt;&lt;/span&gt;&lt;/span&gt;&lt;br&gt;&lt;/p&gt;&lt;hr size=&quot;1&quot;&gt;&lt;p style=&quot;margin:0px;margin-left:4px;&quot;&gt;+&amp;nbsp;&lt;span style=&quot;caret-color: rgb(0, 0, 0); text-wrap: wrap; text-size-adjust: auto;&quot; id=&quot;docs-internal-guid-462577ee-7fff-3a6e-18f1-1afd69765bc6&quot;&gt;&lt;span style=&quot;font-family: Arial, sans-serif; background-color: transparent; font-variant-east-asian: normal; font-variant-position: normal; vertical-align: baseline; white-space-collapse: preserve;&quot;&gt;&lt;font style=&quot;font-size: 12px;&quot;&gt;niveauDeSysteme&lt;/font&gt;&lt;/span&gt;&lt;/span&gt;: Int&lt;br&gt;+&amp;nbsp;&lt;span style=&quot;caret-color: rgb(0, 0, 0); text-wrap: wrap; text-size-adjust: auto;&quot; id=&quot;docs-internal-guid-7cf39076-7fff-7596-5069-f07c1bd4fb56&quot;&gt;&lt;span style=&quot;font-family: Arial, sans-serif; background-color: transparent; font-variant-east-asian: normal; font-variant-position: normal; vertical-align: baseline; white-space-collapse: preserve;&quot;&gt;&lt;font style=&quot;font-size: 12px;&quot;&gt;estOccupÃ©&lt;/font&gt;&lt;/span&gt;&lt;/span&gt;: Bool&lt;/p&gt;&lt;p style=&quot;margin:0px;margin-left:4px;&quot;&gt;+&amp;nbsp;&lt;span style=&quot;caret-color: rgb(0, 0, 0); text-wrap: wrap; text-size-adjust: auto;&quot; id=&quot;docs-internal-guid-00a3d113-7fff-d1fa-c497-511a970d967c&quot;&gt;&lt;span style=&quot;background-color: transparent; font-variant-east-asian: normal; font-variant-position: normal; vertical-align: baseline; white-space-collapse: preserve;&quot;&gt;&lt;font style=&quot;font-size: 12px;&quot;&gt;joueurOccupant&lt;/font&gt;&lt;/span&gt;&lt;/span&gt;: Joueur&lt;br&gt;&lt;/p&gt;&lt;hr size=&quot;1&quot;&gt;&lt;p style=&quot;margin:0px;margin-left:4px;&quot;&gt;-&amp;nbsp;&lt;span style=&quot;caret-color: rgb(0, 0, 0); text-wrap: wrap; text-size-adjust: auto;&quot; id=&quot;docs-internal-guid-e1630ec1-7fff-0c20-7431-e668d71be7ab&quot;&gt;&lt;span style=&quot;background-color: transparent; font-variant-east-asian: normal; font-variant-position: normal; vertical-align: baseline; white-space-collapse: preserve;&quot;&gt;&lt;font face=&quot;Helvetica&quot; style=&quot;font-size: 12px;&quot;&gt;placerVaisseau&lt;/font&gt;&lt;/span&gt;&lt;/span&gt;()&lt;br&gt;-&amp;nbsp;&lt;span style=&quot;caret-color: rgb(0, 0, 0); text-wrap: wrap; text-size-adjust: auto;&quot; id=&quot;docs-internal-guid-03e8e8f0-7fff-3a2d-6706-b5379dcc5f43&quot;&gt;&lt;span style=&quot;font-family: Arial, sans-serif; background-color: transparent; font-variant-east-asian: normal; font-variant-position: normal; vertical-align: baseline; white-space-collapse: preserve;&quot;&gt;&lt;font style=&quot;font-size: 12px;&quot;&gt;retirerVaisseau&lt;/font&gt;&lt;/span&gt;&lt;/span&gt;()&lt;/p&gt;" style="verticalAlign=top;align=left;overflow=fill;fontSize=12;fontFamily=Helvetica;html=1;rounded=0;shadow=0;comic=0;labelBackgroundColor=none;strokeWidth=1" parent="1" vertex="1">
          <mxGeometry x="50" y="520" width="190" height="140" as="geometry" />
        </mxCell>
        <mxCell id="GJo9A6eDQmk_NZIqTq33-7" value="" style="endArrow=none;html=1;rounded=0;exitX=0.012;exitY=0.679;exitDx=0;exitDy=0;exitPerimeter=0;entryX=0.998;entryY=0.673;entryDx=0;entryDy=0;entryPerimeter=0;" parent="1" source="5d2195bd80daf111-19" target="5d2195bd80daf111-19" edge="1">
          <mxGeometry width="50" height="50" relative="1" as="geometry">
            <mxPoint x="490" y="350" as="sourcePoint" />
            <mxPoint x="540" y="300" as="targetPoint" />
          </mxGeometry>
        </mxCell>
        <mxCell id="GJo9A6eDQmk_NZIqTq33-13" value="" style="endArrow=classic;html=1;rounded=0;entryX=1;entryY=0.75;entryDx=0;entryDy=0;" parent="1" target="5d2195bd80daf111-18" edge="1">
          <mxGeometry width="50" height="50" relative="1" as="geometry">
            <mxPoint x="270" y="300" as="sourcePoint" />
            <mxPoint x="540" y="340" as="targetPoint" />
            <Array as="points">
              <mxPoint x="310" y="300" />
              <mxPoint x="310" y="200" />
            </Array>
          </mxGeometry>
        </mxCell>
        <mxCell id="GJo9A6eDQmk_NZIqTq33-14" value="" style="endArrow=none;html=1;rounded=0;exitX=1.001;exitY=0.125;exitDx=0;exitDy=0;exitPerimeter=0;" parent="1" source="5d2195bd80daf111-20" edge="1">
          <mxGeometry width="50" height="50" relative="1" as="geometry">
            <mxPoint x="260" y="540" as="sourcePoint" />
            <mxPoint x="540" y="390" as="targetPoint" />
            <Array as="points">
              <mxPoint x="320" y="538" />
              <mxPoint x="320" y="480" />
              <mxPoint x="510" y="480" />
              <mxPoint x="510" y="390" />
              <mxPoint x="530" y="390" />
            </Array>
          </mxGeometry>
        </mxCell>
        <mxCell id="GJo9A6eDQmk_NZIqTq33-15" value="" style="rhombus;whiteSpace=wrap;html=1;fillColor=#000000;" parent="1" vertex="1">
          <mxGeometry x="540" y="386" width="10" height="10" as="geometry" />
        </mxCell>
        <mxCell id="GJo9A6eDQmk_NZIqTq33-20" value="" style="endArrow=classic;html=1;rounded=0;entryX=0.982;entryY=0.188;entryDx=0;entryDy=0;entryPerimeter=0;" parent="1" edge="1">
          <mxGeometry width="50" height="50" relative="1" as="geometry">
            <mxPoint x="323" y="90" as="sourcePoint" />
            <mxPoint x="249.99999999999991" y="90.00000000000014" as="targetPoint" />
            <Array as="points">
              <mxPoint x="410" y="90" />
            </Array>
          </mxGeometry>
        </mxCell>
        <mxCell id="GJo9A6eDQmk_NZIqTq33-21" value="" style="endArrow=classic;html=1;rounded=0;exitX=-0.005;exitY=0.346;exitDx=0;exitDy=0;exitPerimeter=0;" parent="1" edge="1" source="GJo9A6eDQmk_NZIqTq33-12">
          <mxGeometry width="50" height="50" relative="1" as="geometry">
            <mxPoint x="350" y="103" as="sourcePoint" />
            <mxPoint x="270" y="330" as="targetPoint" />
            <Array as="points">
              <mxPoint x="350" y="110" />
              <mxPoint x="350" y="330" />
            </Array>
          </mxGeometry>
        </mxCell>
        <mxCell id="GJo9A6eDQmk_NZIqTq33-22" value="" style="endArrow=classic;html=1;rounded=0;entryX=1.007;entryY=0.47;entryDx=0;entryDy=0;entryPerimeter=0;" parent="1" target="5d2195bd80daf111-19" edge="1">
          <mxGeometry width="50" height="50" relative="1" as="geometry">
            <mxPoint x="440" y="540" as="sourcePoint" />
            <mxPoint x="270" y="350" as="targetPoint" />
            <Array as="points">
              <mxPoint x="440" y="370" />
              <mxPoint x="360" y="370" />
            </Array>
          </mxGeometry>
        </mxCell>
        <mxCell id="GJo9A6eDQmk_NZIqTq33-23" value="" style="endArrow=classic;html=1;rounded=0;" parent="1" edge="1">
          <mxGeometry width="50" height="50" relative="1" as="geometry">
            <mxPoint x="130" y="520" as="sourcePoint" />
            <mxPoint x="130" y="460" as="targetPoint" />
            <Array as="points">
              <mxPoint x="130" y="490" />
            </Array>
          </mxGeometry>
        </mxCell>
        <mxCell id="GJo9A6eDQmk_NZIqTq33-24" style="edgeStyle=orthogonalEdgeStyle;rounded=0;html=1;dashed=1;labelBackgroundColor=none;startFill=0;endArrow=open;endFill=0;endSize=10;fontFamily=Verdana;fontSize=10;exitX=0;exitY=0.25;exitDx=0;exitDy=0;" parent="1" source="5d2195bd80daf111-14" edge="1">
          <mxGeometry relative="1" as="geometry">
            <Array as="points">
              <mxPoint x="605" y="140" />
            </Array>
            <mxPoint x="450" y="210" as="sourcePoint" />
            <mxPoint x="570" y="140" as="targetPoint" />
          </mxGeometry>
        </mxCell>
        <mxCell id="GJo9A6eDQmk_NZIqTq33-25" style="edgeStyle=orthogonalEdgeStyle;rounded=0;html=1;dashed=1;labelBackgroundColor=none;startFill=0;endArrow=open;endFill=0;endSize=10;fontFamily=Verdana;fontSize=10;exitX=0;exitY=0.5;exitDx=0;exitDy=0;" parent="1" edge="1">
          <mxGeometry relative="1" as="geometry">
            <Array as="points">
              <mxPoint x="606.16" y="64.47" />
              <mxPoint x="606.16" y="64.47" />
            </Array>
            <mxPoint x="696.16" y="64.47000000000011" as="sourcePoint" />
            <mxPoint x="570" y="65" as="targetPoint" />
          </mxGeometry>
        </mxCell>
        <mxCell id="vMwmarBmMJlb6eSAjPK_-4" value="1" style="text;html=1;align=center;verticalAlign=middle;whiteSpace=wrap;rounded=0;" vertex="1" parent="1">
          <mxGeometry x="250" y="200" width="30" height="18" as="geometry" />
        </mxCell>
        <mxCell id="vMwmarBmMJlb6eSAjPK_-5" value="&amp;nbsp;1 ..3" style="text;html=1;align=center;verticalAlign=middle;whiteSpace=wrap;rounded=0;" vertex="1" parent="1">
          <mxGeometry x="270" y="300" width="30" height="20" as="geometry" />
        </mxCell>
        <mxCell id="vMwmarBmMJlb6eSAjPK_-7" value="" style="endArrow=classic;html=1;rounded=0;entryX=0.994;entryY=0.343;entryDx=0;entryDy=0;entryPerimeter=0;" edge="1" parent="1" target="5d2195bd80daf111-18">
          <mxGeometry width="50" height="50" relative="1" as="geometry">
            <mxPoint x="550" y="370" as="sourcePoint" />
            <mxPoint x="350" y="280" as="targetPoint" />
            <Array as="points">
              <mxPoint x="520" y="370" />
              <mxPoint x="520" y="280" />
              <mxPoint x="320" y="280" />
              <mxPoint x="320" y="119" />
            </Array>
          </mxGeometry>
        </mxCell>
        <mxCell id="vMwmarBmMJlb6eSAjPK_-9" value="1" style="text;html=1;align=center;verticalAlign=middle;whiteSpace=wrap;rounded=0;" vertex="1" parent="1">
          <mxGeometry x="250" y="120" width="30" height="18" as="geometry" />
        </mxCell>
        <mxCell id="vMwmarBmMJlb6eSAjPK_-11" value="1" style="text;html=1;align=center;verticalAlign=middle;whiteSpace=wrap;rounded=0;" vertex="1" parent="1">
          <mxGeometry x="520" y="350" width="30" height="18" as="geometry" />
        </mxCell>
        <mxCell id="vMwmarBmMJlb6eSAjPK_-12" value="1" style="text;html=1;align=center;verticalAlign=middle;whiteSpace=wrap;rounded=0;" vertex="1" parent="1">
          <mxGeometry x="520" y="396" width="30" height="18" as="geometry" />
        </mxCell>
        <mxCell id="vMwmarBmMJlb6eSAjPK_-13" value="9" style="text;html=1;align=center;verticalAlign=middle;whiteSpace=wrap;rounded=0;" vertex="1" parent="1">
          <mxGeometry x="240" y="540" width="30" height="18" as="geometry" />
        </mxCell>
        <mxCell id="vMwmarBmMJlb6eSAjPK_-14" value="1" style="text;html=1;align=center;verticalAlign=middle;whiteSpace=wrap;rounded=0;" vertex="1" parent="1">
          <mxGeometry x="270" y="368" width="30" height="18" as="geometry" />
        </mxCell>
        <mxCell id="vMwmarBmMJlb6eSAjPK_-15" value="0 ..**" style="text;html=1;align=center;verticalAlign=middle;whiteSpace=wrap;rounded=0;" vertex="1" parent="1">
          <mxGeometry x="410" y="520" width="30" height="18" as="geometry" />
        </mxCell>
        <mxCell id="vMwmarBmMJlb6eSAjPK_-16" value="1" style="text;html=1;align=center;verticalAlign=middle;whiteSpace=wrap;rounded=0;" vertex="1" parent="1">
          <mxGeometry x="270" y="332" width="30" height="18" as="geometry" />
        </mxCell>
        <mxCell id="vMwmarBmMJlb6eSAjPK_-17" value="1" style="text;html=1;align=center;verticalAlign=middle;whiteSpace=wrap;rounded=0;" vertex="1" parent="1">
          <mxGeometry x="380" y="110" width="30" height="18" as="geometry" />
        </mxCell>
        <mxCell id="vMwmarBmMJlb6eSAjPK_-18" value="1" style="text;html=1;align=center;verticalAlign=middle;whiteSpace=wrap;rounded=0;" vertex="1" parent="1">
          <mxGeometry x="250" y="72" width="30" height="18" as="geometry" />
        </mxCell>
        <mxCell id="vMwmarBmMJlb6eSAjPK_-19" value="0 ..**" style="text;html=1;align=center;verticalAlign=middle;whiteSpace=wrap;rounded=0;" vertex="1" parent="1">
          <mxGeometry x="380" y="72" width="30" height="18" as="geometry" />
        </mxCell>
        <mxCell id="vMwmarBmMJlb6eSAjPK_-20" value="1..***" style="text;html=1;align=center;verticalAlign=middle;whiteSpace=wrap;rounded=0;" vertex="1" parent="1">
          <mxGeometry x="135" y="460" width="30" height="18" as="geometry" />
        </mxCell>
        <mxCell id="vMwmarBmMJlb6eSAjPK_-21" value="1" style="text;html=1;align=center;verticalAlign=middle;whiteSpace=wrap;rounded=0;" vertex="1" parent="1">
          <mxGeometry x="130" y="500" width="20" height="10" as="geometry" />
        </mxCell>
      </root>
    </mxGraphModel>
  </diagram>
</mxfile>
